<?xml version="1.0" standalone="no"?>
<!DOCTYPE svg PUBLIC "-//W3C//DTD SVG 20010904//EN"
 "http://www.w3.org/TR/2001/REC-SVG-20010904/DTD/svg10.dtd">
<svg version="1.0" xmlns="http://www.w3.org/2000/svg"
 width="700.000000pt" height="700.000000pt" viewBox="0 0 700.000000 700.000000"
 preserveAspectRatio="xMidYMid meet">
<metadata>
Created by potrace 1.11, written by Peter Selinger 2001-2013
</metadata>
<g transform="translate(0.000000,700.000000) scale(0.100000,-0.100000)"
fill="#000000" stroke="none">
<path d="M3465 6353 c-182 -29 -242 -59 -365 -183 -80 -79 -201 -208 -345
-365 -15 -16 -67 -73 -115 -125 -48 -52 -100 -108 -115 -125 -16 -16 -76 -82
-135 -145 -59 -63 -119 -128 -133 -144 -24 -25 -93 -100 -292 -315 -82 -88
-91 -97 -165 -177 -36 -38 -117 -125 -180 -194 -63 -69 -128 -139 -145 -156
-16 -17 -50 -53 -74 -80 -25 -27 -95 -103 -155 -168 -61 -66 -118 -127 -126
-136 -28 -30 -255 -275 -268 -288 -30 -32 -142 -182 -174 -232 -120 -189 -211
-419 -244 -620 -4 -25 -9 -54 -11 -65 -9 -47 -11 -415 -2 -470 39 -252 183
-489 386 -637 77 -57 187 -110 317 -153 95 -32 527 -179 926 -317 96 -33 200
-68 230 -78 30 -10 150 -50 265 -90 116 -40 314 -107 440 -150 127 -43 349
-120 495 -170 299 -104 355 -118 438 -115 167 7 296 77 412 225 19 25 37 47
40 50 3 3 23 28 45 55 22 28 47 59 57 70 9 11 54 67 100 125 45 58 93 116 105
130 30 33 30 81 -1 117 l-24 27 -93 -18 c-99 -19 -124 -22 -284 -31 -55 -4
-111 -8 -125 -10 -14 -2 -30 -3 -37 -4 -6 -1 -48 -34 -92 -75 -81 -74 -111
-91 -185 -99 -43 -6 -69 2 -751 216 -236 74 -569 178 -740 231 -170 53 -328
103 -350 110 -22 8 -87 28 -145 46 -58 17 -116 35 -130 40 -22 8 -244 78 -420
132 -93 29 -180 80 -240 140 -55 56 -130 179 -130 214 0 11 -3 24 -7 28 -13
13 -17 62 -17 261 -1 226 7 264 70 329 83 85 182 101 331 53 44 -15 200 -63
345 -107 144 -45 321 -99 391 -121 154 -49 204 -51 253 -14 73 55 82 95 53
228 -26 118 -28 330 -5 454 2 10 7 39 10 64 16 120 79 307 154 454 111 220
305 459 522 641 136 114 338 231 507 293 237 87 544 124 813 98 80 -7 95 -10
205 -32 215 -44 405 -124 595 -250 124 -83 147 -102 257 -213 98 -100 140
-122 213 -115 58 5 131 49 178 106 38 46 68 81 130 152 10 11 114 133 232 270
118 138 217 252 220 255 3 3 32 37 65 75 33 39 71 81 84 95 13 14 32 45 43 69
47 102 -4 246 -102 290 -38 17 -563 139 -678 157 -20 3 -40 8 -43 10 -4 2 -92
22 -195 44 -104 22 -229 49 -279 60 -49 11 -99 22 -110 24 -36 7 -859 186
-900 196 -47 11 -349 77 -385 84 -14 2 -47 10 -75 16 -27 6 -61 14 -75 16 -14
3 -50 11 -80 19 -57 14 -150 23 -185 18z"/>
<path d="M4087 4684 c-1 -1 -38 -5 -82 -9 -321 -26 -616 -170 -880 -430 -235
-232 -379 -491 -431 -777 -23 -127 -24 -382 -1 -505 104 -572 535 -1042 1082
-1181 149 -38 213 -46 380 -46 201 0 376 34 555 109 73 30 110 35 147 20 17
-8 216 -198 443 -424 226 -227 429 -423 451 -436 21 -14 60 -33 86 -42 62 -21
192 -21 253 1 106 39 202 133 241 237 36 94 29 246 -16 339 -15 30 -336 356
-728 738 -121 118 -136 138 -143 190 -4 29 4 58 41 140 122 277 159 562 110
867 -26 162 -119 394 -217 540 -184 273 -425 465 -729 578 -52 20 -106 38
-120 41 -13 2 -46 10 -74 16 -57 14 -73 16 -170 25 -72 7 -195 12 -198 9z
m243 -499 c127 -22 286 -89 387 -161 275 -196 429 -497 424 -829 -6 -430 -282
-800 -704 -940 -121 -40 -178 -49 -312 -49 -128 0 -198 12 -315 52 -225 78
-434 261 -555 485 -36 67 -79 187 -89 250 -3 18 -8 45 -11 61 -21 108 -6 334
30 456 18 60 98 225 121 251 8 8 14 19 14 23 0 16 154 176 205 214 123 90 254
148 415 182 85 18 303 21 390 5z"/>
<path d="M6112 4680 c-31 -13 -109 -95 -149 -157 -42 -66 -63 -143 -70 -263
-7 -114 10 -211 62 -355 19 -53 35 -109 35 -126 0 -16 -16 -60 -35 -97 -35
-68 -42 -103 -32 -157 23 -110 28 -151 33 -240 9 -170 16 -188 82 -201 57 -11
75 2 172 123 52 65 100 125 107 133 7 8 51 64 99 124 145 179 144 213 -12 508
-61 116 -66 240 -20 462 27 127 -3 202 -97 241 -40 16 -138 19 -175 5z"/>
</g>
</svg>
